<?xml version="1.0" encoding="UTF-8" standalone="no" ?>
<!DOCTYPE svg PUBLIC "-//W3C//DTD SVG 1.1//EN" "http://www.w3.org/Graphics/SVG/1.1/DTD/svg11.dtd">
<svg xmlns="http://www.w3.org/2000/svg" xmlns:xlink="http://www.w3.org/1999/xlink" version="1.1" width="298" height="343" viewBox="0 0 298 343" xml:space="preserve">
<desc>Created with Fabric.js 3.6.3</desc>
<defs>
</defs>
<g transform="matrix(0 1.99 -1.8 0 149.7 171.13)"  >
<path style="stroke: none; stroke-width: 1; stroke-dasharray: none; stroke-linecap: butt; stroke-dashoffset: 0; stroke-linejoin: miter; stroke-miterlimit: 10; fill: none; fill-rule: nonzero; opacity: 1;"  transform=" translate(-86, -86)" d="M 0 172 v -172 h 172 v 172 z" stroke-linecap="round" />
</g>
<g transform="matrix(0 1.99 -1.8 0 149.74 171.13)"  >
<path style="stroke: none; stroke-width: 1; stroke-dasharray: none; stroke-linecap: butt; stroke-dashoffset: 0; stroke-linejoin: miter; stroke-miterlimit: 10; fill: rgb(255,255,255); fill-rule: nonzero; opacity: 1;"  transform=" translate(-86, -85.98)" d="M 139.6425 3.225 c -0.215 0.02688 -0.43 0.06719 -0.645 0.1075 c -2.43219 0.34938 -4.48812 1.97531 -5.40187 4.25969 c -0.91375 2.28438 -0.52406 4.87781 0.99437 6.81281 c 14.88875 20.00844 23.65 44.70656 23.65 71.595 c 0 26.90188 -8.84187 51.68063 -23.7575 71.7025 c -1.49156 1.97531 -1.81406 4.60906 -0.83312 6.88 c 0.98094 2.27094 3.1175 3.84313 5.57656 4.11188 c 2.45906 0.26875 4.87781 -0.80625 6.32906 -2.82188 c 16.60875 -22.30625 26.445 -49.96062 26.445 -79.8725 c 0 -29.89844 -9.86312 -57.57969 -26.445 -79.8725 c -1.34375 -1.90812 -3.57437 -2.99656 -5.9125 -2.9025 z M 0 13.76 v 44.72 h 13.76 c 2.37844 0 4.67625 0.29563 6.88 0.86 v -29.67 c 0 -8.78812 -6.71875 -15.91 -14.9425 -15.91 z M 118.465 16.0175 c -2.52625 0.22844 -4.73 1.8275 -5.71094 4.16563 c -0.99438 2.35156 -0.61813 5.03906 0.98094 7.01437 c 12.80594 16.15188 20.425 36.56344 20.425 58.8025 c 0 22.23906 -7.61906 42.65063 -20.425 58.8025 c -1.80062 1.89469 -2.39187 4.63594 -1.505 7.095 c 0.90031 2.45906 3.10406 4.20594 5.6975 4.50156 c 2.59344 0.29562 5.13313 -0.91375 6.5575 -3.10406 c 14.64688 -18.49 23.435 -41.89812 23.435 -67.295 c 0 -25.39687 -8.78812 -48.805 -23.435 -67.295 c -1.42437 -1.86781 -3.68187 -2.87562 -6.02 -2.6875 z M 97.5025 29.24 c -2.53969 0.30906 -4.68969 2.00219 -5.59 4.39406 c -0.90031 2.39187 -0.40312 5.09281 1.29 7.00094 c 10.52156 12.16094 16.8775 27.99031 16.8775 45.365 c 0 17.37469 -6.35594 33.2175 -16.8775 45.365 c -1.81406 1.8275 -2.45906 4.52844 -1.65281 6.97406 c 0.79281 2.45906 2.9025 4.25969 5.44219 4.66281 c 2.55312 0.41656 5.10625 -0.63156 6.63812 -2.71438 c 12.60438 -14.55281 20.21 -33.55344 20.21 -54.2875 c 0 -20.73406 -7.61906 -39.72125 -20.21 -54.2875 c -1.49156 -1.81406 -3.80281 -2.74125 -6.1275 -2.4725 z M 76.6475 42.57 c -2.71437 0.25531 -5.01219 2.09625 -5.87219 4.67625 c -0.86 2.58 -0.12094 5.42875 1.89469 7.25625 c 8.23719 7.99531 13.33 19.08125 13.33 31.4975 c 0 12.41625 -5.09281 23.50219 -13.33 31.4975 c -1.80062 1.70656 -2.55312 4.24625 -1.96187 6.65156 c 0.60469 2.40531 2.43219 4.3 4.82406 4.97187 c 2.37844 0.67188 4.945 0.01344 6.70531 -1.73344 c 10.79031 -10.48125 17.5225 -25.18187 17.5225 -41.3875 c 0 -16.20562 -6.71875 -30.90625 -17.5225 -41.3875 c -1.30344 -1.31687 -3.09062 -2.05594 -4.945 -2.0425 c -0.215 -0.01344 -0.43 -0.01344 -0.645 0 z M 54.61 56.6525 c -3.06375 0.26875 -5.57656 2.53969 -6.15437 5.56313 c -0.57781 3.02344 0.92719 6.07375 3.68187 7.44437 c 5.83188 3.1175 9.7825 9.20469 9.7825 16.34 c 0 7.12188 -3.9775 13.2225 -9.7825 16.34 c -3.35937 1.81406 -4.60906 5.99313 -2.795 9.3525 c 1.81406 3.35938 5.99313 4.60906 9.3525 2.795 c 10.14531 -5.44219 16.985 -16.2325 16.985 -28.4875 c 0 -12.28187 -6.92031 -23.04531 -17.0925 -28.4875 c -1.20937 -0.68531 -2.59344 -0.98094 -3.9775 -0.86 z M 6.88 65.36 v 41.28 h 6.88 c 11.395 0 20.64 -9.245 20.64 -20.64 c 0 -11.395 -9.245 -20.64 -20.64 -20.64 z M 20.64 112.66 c -2.20375 0.56438 -4.50156 0.86 -6.88 0.86 h -13.76 v 44.72 h 5.6975 c 8.22375 0 14.9425 -7.10844 14.9425 -15.91 z" stroke-linecap="round" />
</g>
</svg>